<?xml version="1.0" encoding="UTF-8"?>
<svg version="1.1" xmlns="http://www.w3.org/2000/svg" width="30" height="31">
<path d="M0 0 C2.4375 1.3125 2.4375 1.3125 4 3 C4 3.99 4 4.98 4 6 C3.443125 5.67 2.88625 5.34 2.3125 5 C-0.30284522 3.8690399 -2.1806646 3.84337026 -5 4 C-4.01 4.66 -3.02 5.32 -2 6 C-2 6.66 -2 7.32 -2 8 C-0.9275 8.0825 0.145 8.165 1.25 8.25 C5.3316667 9.06633334 6.69175187 9.58379277 9 13 C9.5 16.0625 9.5 16.0625 9 19 C7.1875 20.875 7.1875 20.875 5 22 C4.01 22 3.02 22 2 22 C1.690625 22.639375 1.38125 23.27875 1.0625 23.9375 C0 26 0 26 -1 27 C-5.17639129 27.5167543 -8.79520039 27.79263132 -12.375 25.4375 C-14.37105261 22.44342108 -15.64462916 19.32681934 -17 16 C-17.66 15.34 -18.32 14.68 -19 14 C-19.375 11.0625 -19.375 11.0625 -19 8 C-17.3125 6.3125 -17.3125 6.3125 -15 5 C-14.154375 4.484375 -13.30875 3.96875 -12.4375 3.4375 C-11.2309375 2.7259375 -11.2309375 2.7259375 -10 2 C-6.28986601 -0.47342266 -4.38939738 -0.38503486 0 0 Z M-9 7 C-5 8 -5 8 -5 8 Z M4 13 C3.67 14.32 3.34 15.64 3 17 C3.99 17 4.98 17 6 17 C6 15.68 6 14.36 6 13 C5.34 13 4.68 13 4 13 Z M-9 21 C-8.67 21.66 -8.34 22.32 -8 23 C-5.69 23 -3.38 23 -1 23 C-1 22.67 -1 22.34 -1 22 C-3.64 21.67 -6.28 21.34 -9 21 Z " fill="#FEE8E6" transform="translate(20,2)"/>
<path d="M0 0 C2.4375 1.3125 2.4375 1.3125 4 3 C4 3.99 4 4.98 4 6 C3.505 5.67 3.01 5.34 2.5 5 C-1.09090894 3.56363642 -4.14456127 3.87148538 -8 4 C-7.67 4.99 -7.34 5.98 -7 7 C-7.66 7.66 -8.32 8.32 -9 9 C-9.33 9.99 -9.66 10.98 -10 12 C-7.03 12.495 -7.03 12.495 -4 13 C-4 13.33 -4 13.66 -4 14 C-6.64 14 -9.28 14 -12 14 C-10.27773504 17.24849977 -10.27773504 17.24849977 -7 18 C-5.00258264 18.1192902 -3.00093876 18.17523935 -1 18.1875 C0.051875 18.20167969 1.10375 18.21585938 2.1875 18.23046875 C5.20758688 18.21180926 5.20758688 18.21180926 8 16 C6.25 19.875 6.25 19.875 4 21 C-1.28910111 21.40253336 -6.21290155 21.55311917 -11 19 C-10.43637698 21.04836882 -10.43637698 21.04836882 -9 23 C-6.02019764 23.74664647 -6.02019764 23.74664647 -3 24 C-2.34 24.33 -1.68 24.66 -1 25 C-2 26 -2 26 -5.3125 26.3125 C-9 26 -9 26 -11.25 24.4375 C-13.38260744 21.4670825 -14.62365082 18.37831162 -16 15 C-16.66 14.34 -17.32 13.68 -18 13 C-17.64700993 9.55834679 -16.95418308 7.93127462 -15 5 C-13.36368108 3.95107762 -11.69514137 2.95093297 -10 2 C-6.28986601 -0.47342266 -4.38939738 -0.38503486 0 0 Z " fill="#FCCDCC" transform="translate(20,2)"/>
<path d="M0 0 C1.51400391 0.01740234 1.51400391 0.01740234 3.05859375 0.03515625 C4.07050781 0.04417969 5.08242188 0.05320312 6.125 0.0625 C7.29869141 0.07990234 7.29869141 0.07990234 8.49609375 0.09765625 C8.49609375 0.75765625 8.49609375 1.41765625 8.49609375 2.09765625 C9.48609375 2.09765625 10.47609375 2.09765625 11.49609375 2.09765625 C11.18671875 3.27328125 11.18671875 3.27328125 10.87109375 4.47265625 C10.74734375 5.33890625 10.62359375 6.20515625 10.49609375 7.09765625 C11.15609375 7.75765625 11.81609375 8.41765625 12.49609375 9.09765625 C10.71040214 10.88334786 8.15955637 10.31233728 5.74609375 10.34765625 C4.699375 10.3734375 3.65265625 10.39921875 2.57421875 10.42578125 C-0.88087424 10.05747184 -2.75592202 9.19426644 -5.50390625 7.09765625 C-5.50390625 6.43765625 -5.50390625 5.77765625 -5.50390625 5.09765625 C-4.84390625 4.76765625 -4.18390625 4.43765625 -3.50390625 4.09765625 C-3.50390625 3.10765625 -3.50390625 2.11765625 -3.50390625 1.09765625 C-2.50390625 0.09765625 -2.50390625 0.09765625 0 0 Z " fill="#EBE6F7" transform="translate(13.50390625,10.90234375)"/>
<path d="M0 0 C0.66 0.33 1.32 0.66 2 1 C1.67 2.65 1.34 4.3 1 6 C5.80410927 10.02506452 8.75700522 11.14924636 15 11.1875 C16.051875 11.20167969 17.10375 11.21585938 18.1875 11.23046875 C21.20758688 11.21180926 21.20758688 11.21180926 24 9 C22.25 12.875 22.25 12.875 20 14 C14.71089889 14.40253336 9.78709845 14.55311917 5 12 C5.56362302 14.04836882 5.56362302 14.04836882 7 16 C9.97980236 16.74664647 9.97980236 16.74664647 13 17 C13.66 17.33 14.32 17.66 15 18 C14 19 14 19 10.6875 19.3125 C7 19 7 19 4.75 17.4375 C2.61739256 14.4670825 1.37634918 11.37831162 0 8 C-0.66 7.34 -1.32 6.68 -2 6 C-1.44444444 1.44444444 -1.44444444 1.44444444 0 0 Z " fill="#FD3E26" transform="translate(4,9)"/>
<path d="M0 0 C1.51400391 0.01740234 1.51400391 0.01740234 3.05859375 0.03515625 C4.07050781 0.04417969 5.08242188 0.05320312 6.125 0.0625 C7.29869141 0.07990234 7.29869141 0.07990234 8.49609375 0.09765625 C8.49609375 0.75765625 8.49609375 1.41765625 8.49609375 2.09765625 C7.83609375 2.09765625 7.17609375 2.09765625 6.49609375 2.09765625 C6.16609375 3.41765625 5.83609375 4.73765625 5.49609375 6.09765625 C1.86609375 6.09765625 -1.76390625 6.09765625 -5.50390625 6.09765625 C-4.84390625 5.43765625 -4.18390625 4.77765625 -3.50390625 4.09765625 C-3.50390625 3.10765625 -3.50390625 2.11765625 -3.50390625 1.09765625 C-2.50390625 0.09765625 -2.50390625 0.09765625 0 0 Z " fill="#3C6DFF" transform="translate(13.50390625,10.90234375)"/>
<path d="M0 0 C1.98 0.66 3.96 1.32 6 2 C6 2.66 6 3.32 6 4 C7.093125 4.12375 8.18625 4.2475 9.3125 4.375 C13 5 13 5 16 7 C15.67 7.66 15.34 8.32 15 9 C14.34 9 13.68 9 13 9 C13 8.34 13 7.68 13 7 C12.01 7 11.02 7 10 7 C10 6.34 10 5.68 10 5 C6.37 5 2.74 5 -1 5 C-0.34 4.34 0.32 3.68 1 3 C0.67 2.01 0.34 1.02 0 0 Z " fill="#FEFAF9" transform="translate(12,6)"/>
<path d="M0 0 C0 2.79784711 -0.37195775 4.9790678 -1 7.6875 C-1.185625 8.49574219 -1.37125 9.30398438 -1.5625 10.13671875 C-1.7790625 11.05904297 -1.7790625 11.05904297 -2 12 C-3.32 11.01 -4.64 10.02 -6 9 C-5.67 6.69 -5.34 4.38 -5 2 C-3.35 1.34 -1.7 0.68 0 0 Z " fill="#F89D9A" transform="translate(10,6)"/>
<path d="M0 0 C3.63 0 7.26 0 11 0 C11 0.66 11 1.32 11 2 C8.04335481 3.4783226 5.25770263 3.06032783 2 3 C2 2.34 2 1.68 2 1 C1.34 0.67 0.68 0.34 0 0 Z " fill="#86A3FF" transform="translate(11,11)"/>
<path d="M0 0 C2 1 2 1 3.25 3.5 C4.80734631 6.30952474 4.80734631 6.30952474 8.0625 6.75 C9.031875 6.8325 10.00125 6.915 11 7 C11.66 7.33 12.32 7.66 13 8 C12 9 12 9 8.6875 9.3125 C5 9 5 9 2.625 7.3125 C0.86565598 4.80881813 0.33533277 3.01799494 0 0 Z " fill="#F66564" transform="translate(6,19)"/>
<path d="M0 0 C0.66 0.99 1.32 1.98 2 3 C1.34 3.66 0.68 4.32 0 5 C-0.33 5.99 -0.66 6.98 -1 8 C1.97 8.495 1.97 8.495 5 9 C5 9.33 5 9.66 5 10 C2.36 10 -0.28 10 -3 10 C-2.25 3.375 -2.25 3.375 0 0 Z " fill="#E1D9EE" transform="translate(11,6)"/>
<path d="M0 0 C0 0.99 0 1.98 0 3 C-0.515625 2.67 -1.03125 2.34 -1.5625 2 C-4.78026512 0.67989123 -7.5570528 0.86757895 -11 1 C-10.67 0.34 -10.34 -0.32 -10 -1 C-5.95206114 -2.07945036 -3.55979782 -2.32756011 0 0 Z " fill="#FEF7F7" transform="translate(24,5)"/>
</svg>
